<?xml version="1.0" standalone="no"?>
<!DOCTYPE svg PUBLIC "-//W3C//DTD SVG 20010904//EN"
 "http://www.w3.org/TR/2001/REC-SVG-20010904/DTD/svg10.dtd">
<svg version="1.0" xmlns="http://www.w3.org/2000/svg"
 width="1024.000000pt" height="1024.000000pt" viewBox="0 0 1024.000000 1024.000000"
 preserveAspectRatio="xMidYMid meet">
<metadata>
Created by potrace 1.14, written by Peter Selinger 2001-2017
</metadata>
<g transform="translate(0.000000,1024.000000) scale(0.100000,-0.100000)"
fill="#000000" stroke="none">
<path d="M4770 10234 c-449 -38 -845 -115 -1215 -234 -1027 -332 -1905 -961
-2550 -1825 -502 -672 -841 -1498 -959 -2335 -35 -250 -41 -350 -41 -720 0
-244 5 -417 13 -495 44 -398 113 -731 223 -1071 213 -661 551 -1263 1009
-1794 116 -135 385 -404 520 -520 703 -605 1580 -1018 2480 -1169 346 -59 440
-66 870 -66 423 0 527 8 845 61 927 154 1793 561 2515 1184 135 116 404 385
520 520 605 703 1018 1580 1169 2480 59 347 66 440 66 870 0 318 -4 424 -18
545 -74 619 -231 1163 -486 1690 -114 235 -196 379 -347 605 -206 310 -390
534 -656 796 -184 182 -231 225 -373 340 -778 628 -1671 1001 -2685 1120 -128
15 -780 28 -900 18z"/>
</g>
</svg>
